<?xml version="1.0" encoding="UTF-8"?><svg id="b" xmlns="http://www.w3.org/2000/svg" viewBox="0 0 237.814 78.568"><defs><style>.d{letter-spacing:-.034em;}.e{letter-spacing:-.027em;}.e,.f,.g{fill:#f9f9f9;font-family:FilsonPro-Bold, 'Filson Pro';font-size:64.431px;font-weight:700;}.e,.f,.g,.h{isolation:isolate;}.f{letter-spacing:-.022em;}.i{fill:#1c41c7;}.i,.j{stroke-width:0px;}.j{fill:#4062ff;}.k{letter-spacing:-.053em;}</style></defs><g id="c"><g class="h"><text class="f" transform="translate(71.742 58.401) scale(.942 1)"><tspan x="0" y="0">i</tspan></text><text class="e" transform="translate(87.457 58.401) scale(.942 1)"><tspan x="0" y="0">m</tspan></text><text class="g" transform="translate(141.035 58.401) scale(.942 1)"><tspan class="d" x="0" y="0">P</tspan><tspan class="k" x="39.303" y="0">r</tspan></text><text class="f" transform="translate(201.045 58.401) scale(.942 1)"><tspan x="0" y="0">o</tspan></text></g><path class="j" d="m14.451,33.213l16.822-16.822L15.541.659c-.879-.879-2.305-.879-3.184,0L.065,12.951h-.065v42.389l11.893,11.893c.879.879,2.305.879,3.185,0l16.113-16.047-16.745-17.21c-.205-.211-.203-.554.005-.763h0Z"/><path class="j" d="m49.181,33.196l15.184-15.184c.895-.895.895-2.346,0-3.241L50.254.66c-.879-.879-2.305-.879-3.185,0l-15.813,15.813h-.065v34.713l16.344,16.152c.893.882,2.329.882,3.222,0l14.285-14.118c.901-.891.909-2.344.016-3.244l-15.879-16.015c-.211-.212-.21-.555.002-.766h0Z"/><path class="i" d="m31.256,16.474l-.065,34.713,17.705-17.214c.221-.215.219-.571-.005-.783l-17.635-16.716h0Z"/></g></svg>