<svg xmlns="http://www.w3.org/2000/svg" id="b" viewBox="0 0 130.64 135.166"><defs><style>.e{stroke-width:0;fill:#4062ff}</style></defs><g id="c"><path d="m28.725 66.019 33.437-33.437L30.893 1.311c-1.748-1.748-4.582-1.748-6.329 0L.13 25.744H0v84.257l23.641 23.641c1.748 1.748 4.582 1.748 6.33 0L62 101.744l-33.285-34.21c-.408-.42-.404-1.102.01-1.516Z" class="e"/><path d="m97.76 65.984 30.181-30.181c1.779-1.779 1.779-4.664 0-6.443L99.893 1.311c-1.748-1.748-4.582-1.748-6.33 0L62.13 32.744H62v69l32.487 32.106c1.775 1.754 4.63 1.754 6.405 0l28.395-28.062c1.792-1.771 1.806-4.659.033-6.448L97.757 67.507c-.418-.422-.417-1.103.003-1.523Z" class="e"/><path d="m62.13 32.744-.13 69 35.194-34.216c.44-.428.435-1.135-.01-1.557L62.13 32.745Z" style="stroke-width:0;fill:#1c41c7"/></g></svg>