<svg xmlns="http://www.w3.org/2000/svg" width="136" height="46" fill="none"><path fill="#4062FF" d="M30.7894 8.25002A16.50008 16.50008 0 0 0 8.25 14.2894a16.50035 16.50035 0 0 0-2.21058 8.25c0 2.8964.7624 5.7417 2.21058 8.25a16.49986 16.49986 0 0 0 6.0394 6.0395 16.50055 16.50055 0 0 0 16.5 0l-2.6609-4.6088a11.17808 11.17808 0 0 1-11.1782 0 11.17783 11.17783 0 0 1-4.0915-4.0916 11.17808 11.17808 0 0 1 0-11.1782 11.17831 11.17831 0 0 1 4.0915-4.0915 11.17808 11.17808 0 0 1 11.1782 0l2.6609-4.60878Z"/><path fill="#000" d="M13.936 22.6c0-4.68 3.528-8.664 9.216-8.664 2.616 0 4.32.84 6.024 2.112L27.64 18.88c-1.224-.936-2.544-1.632-4.464-1.632-3.408 0-5.472 2.376-5.472 5.352 0 2.976 2.064 5.352 5.472 5.352 1.92 0 3.24-.696 4.464-1.632l1.536 2.832c-1.704 1.272-3.408 2.112-6.024 2.112-5.688 0-9.216-3.984-9.216-8.664Zm20.7441-3.912v2.688c.384-2.232 2.328-2.952 3.384-2.952.408 0 .528.024.912.096v3.528c-.504-.12-1.152-.168-1.512-.168-1.344 0-2.688.792-2.688 2.424V31h-3.576V18.688h3.48Zm11.8408 7.704 2.928-7.704h3.936l-7.968 17.928h-3.6l2.808-6.648-5.064-11.28h4.032l2.928 7.704Zm18.4494-1.512c0-1.992-1.176-3.552-3.168-3.552-1.752 0-3.216 1.152-3.216 3.36 0 2.304 1.368 3.672 3.312 3.672 1.968 0 3.072-1.584 3.072-3.48Zm-6.288 11.736h-3.576V18.688h3.576v1.8c.888-1.272 2.04-2.064 3.864-2.064 3.744 0 6 2.88 6 6.48 0 3.456-2.088 6.36-5.928 6.36-1.656 0-3.096-.816-3.936-1.944v7.296Zm16.4494-20.952v3.024h3.408v2.808h-3.408v5.76c0 .552.216 1.08.912 1.08.696 0 .936-.576.936-1.152 0-.36-.096-.864-.168-1.056h2.832c.216.456.288 1.008.288 1.464 0 1.824-1.2 3.672-4.104 3.672-2.184 0-4.272-.792-4.272-4.344v-5.424h-1.848v-2.808h2.112l.552-3.024h2.76Zm5.8082 9.168c0-3.84 3.192-6.408 6.768-6.408 3.576 0 6.768 2.592 6.768 6.408 0 3.84-3.192 6.432-6.768 6.432-3.576 0-6.768-2.568-6.768-6.432Zm3.48 0c0 1.944 1.536 3.36 3.288 3.36 1.8 0 3.288-1.44 3.288-3.36 0-1.896-1.488-3.336-3.288-3.336-1.752 0-3.288 1.416-3.288 3.336Z"/><path fill="#4062FF" d="M109.45 18.784c0 1.44-.912 2.856-2.736 3.504 2.016.384 3.504 2.256 3.504 3.984 0 2.856-2.4 4.728-5.952 4.728h-7.0318V14.176l6.3118.024c3.384 0 5.904 1.728 5.904 4.584Zm-6.552 5.064h-1.944v4.2h3.312c1.248 0 2.184-.72 2.184-1.848 0-1.152-.456-2.352-3.552-2.352Zm-1.944-2.592h1.536c2.616 0 3.192-1.2 3.192-2.304 0-1.224-1.008-1.8-2.136-1.8h-2.592v4.104Zm15.195-2.568v2.688c.384-2.232 2.328-2.952 3.384-2.952.408 0 .528.024.912.096v3.528c-.504-.12-1.152-.168-1.512-.168-1.344 0-2.688.792-2.688 2.424V31h-3.576V18.688h3.48Zm5.244 6.144c0-3.84 3.192-6.408 6.768-6.408 3.576 0 6.768 2.592 6.768 6.408 0 3.84-3.192 6.432-6.768 6.432-3.576 0-6.768-2.568-6.768-6.432Zm3.48 0c0 1.944 1.536 3.36 3.288 3.36 1.8 0 3.288-1.44 3.288-3.36 0-1.896-1.488-3.336-3.288-3.336-1.752 0-3.288 1.416-3.288 3.336Z"/></svg>